<?xml version="1.0" standalone="no"?>
<!DOCTYPE svg PUBLIC "-//W3C//DTD SVG 20010904//EN"
 "http://www.w3.org/TR/2001/REC-SVG-20010904/DTD/svg10.dtd">
<svg version="1.0" xmlns="http://www.w3.org/2000/svg"
 width="260.000000pt" height="260.000000pt" viewBox="0 0 260.000000 260.000000"
 preserveAspectRatio="xMidYMid meet">
<metadata>
Created by potrace 1.14, written by Peter Selinger 2001-2017
</metadata>
<g transform="translate(0.000000,260.000000) scale(0.100000,-0.100000)"
fill="#000000" stroke="none">
<path d="M1237 2565 c-72 -25 -127 -101 -127 -175 0 -72 64 -161 126 -176 22
-6 24 -11 24 -64 l0 -57 -61 -7 c-126 -15 -300 -88 -389 -163 l-42 -36 -100
100 -100 100 17 33 c29 55 31 137 6 197 -43 98 -131 150 -139 81 -2 -19 3 -31
22 -43 57 -38 75 -153 33 -216 -24 -37 -97 -79 -137 -79 -40 0 -113 42 -137
79 -16 24 -23 49 -23 83 0 74 33 125 107 162 35 18 43 45 18 66 -33 27 -127
-32 -172 -108 -35 -59 -39 -155 -9 -215 59 -118 198 -170 316 -116 l44 20 100
-100 99 -100 -30 -35 c-79 -90 -148 -244 -166 -374 l-13 -87 -51 -3 -51 -3
-22 46 c-71 148 -274 148 -341 0 -37 -80 -20 -155 49 -217 92 -83 232 -54 287
60 20 41 20 41 78 42 l57 0 0 -38 c0 -103 73 -292 153 -397 l45 -60 -66 -70
c-37 -38 -82 -83 -100 -99 l-33 -29 -42 19 c-87 39 -205 16 -268 -53 -93 -99
-90 -231 5 -329 59 -60 111 -79 192 -71 160 16 257 179 194 326 l-23 53 98 98
98 98 61 -45 c115 -86 213 -124 414 -159 19 -4 22 -10 22 -57 0 -53 0 -53 -41
-71 -79 -35 -126 -140 -99 -221 16 -47 66 -104 107 -121 78 -33 184 -2 229 66
35 53 42 125 16 182 -20 45 -67 90 -109 103 -20 6 -23 13 -23 60 0 49 2 55 23
59 200 35 298 73 413 159 l61 45 99 -99 98 -98 -18 -37 c-75 -159 40 -344 214
-344 129 0 240 113 240 244 0 56 -19 91 -50 91 -24 0 -25 -3 -30 -82 -4 -62
-10 -88 -26 -110 -94 -125 -294 -64 -294 89 0 69 24 113 77 145 39 23 52 25
108 20 48 -5 66 -3 75 8 51 61 -101 98 -204 49 l-37 -18 -98 98 -99 99 45 61
c82 111 135 241 151 371 l7 60 55 2 55 3 20 -42 c11 -23 37 -56 58 -72 35 -28
46 -31 106 -31 55 0 74 5 103 24 77 53 106 141 74 226 -60 155 -273 161 -346
10 l-22 -46 -52 3 c-49 3 -51 4 -54 33 -13 155 -90 341 -180 438 l-26 28 100
100 100 100 44 -20 c128 -58 278 6 325 140 61 171 -96 349 -272 309 -146 -32
-227 -181 -174 -320 l21 -55 -99 -99 -99 -99 -42 36 c-89 75 -263 148 -389
163 l-61 7 0 57 c0 53 2 58 24 64 62 15 126 104 126 176 0 78 -62 159 -138
180 -48 13 -68 12 -115 -5z m122 -79 c33 -18 51 -54 51 -106 0 -108 -159 -141
-209 -43 -22 44 -14 92 23 129 38 38 85 45 135 20z m952 -119 c79 -53 105
-156 56 -228 -24 -37 -97 -79 -137 -79 -40 0 -113 42 -137 79 -68 102 13 251
137 251 32 0 58 -7 81 -23z m-902 -358 c158 -25 286 -92 401 -209 89 -90 132
-159 172 -276 61 -176 48 -366 -37 -539 -75 -155 -173 -253 -330 -331 -105
-52 -197 -74 -315 -74 -118 0 -209 22 -320 76 -81 40 -109 60 -185 138 -133
134 -199 276 -212 453 -33 457 377 835 826 762z m-1123 -633 c27 -27 34 -42
34 -72 0 -84 -70 -139 -145 -114 -49 16 -75 53 -75 107 0 38 5 50 34 79 28 28
42 34 76 34 34 0 48 -6 76 -34z m2164 17 c79 -46 69 -164 -17 -199 -51 -22
-114 0 -139 48 -25 49 -18 96 20 134 39 39 89 45 136 17z m-1983 -891 c64 -45
84 -157 40 -222 -90 -135 -297 -75 -297 86 0 59 26 105 80 142 45 31 130 28
177 -6z m909 -216 c29 -29 34 -41 34 -79 0 -54 -26 -91 -75 -107 -44 -15 -96
1 -125 37 -41 52 -17 149 44 173 47 19 87 11 122 -24z"/>
<path d="M1192 1898 c-37 -40 -29 -72 35 -139 l57 -60 58 58 c47 47 58 63 58
90 0 47 -32 77 -73 69 -39 -8 -45 -8 -82 0 -24 4 -35 0 -53 -18z m69 2 c10 -6
19 -17 19 -25 0 -7 6 -16 13 -18 8 -4 8 -8 2 -14 -6 -4 -17 -21 -25 -36 -11
-23 -12 -32 -1 -49 24 -38 4 -28 -42 21 -26 28 -47 58 -47 69 0 28 23 53 58
61 2 1 12 -4 23 -9z m117 -18 c22 -28 13 -52 -38 -105 -42 -44 -50 -49 -50
-30 0 12 -6 24 -12 27 -10 5 -10 7 0 12 6 3 12 11 12 17 0 6 7 19 17 29 15 17
15 19 -1 37 -17 18 -17 20 1 30 22 12 53 5 71 -17z"/>
<path d="M1197 1629 c-48 -14 -131 -89 -150 -136 -25 -64 -49 -202 -42 -241
10 -54 41 -108 79 -138 l34 -27 -54 -49 c-29 -27 -64 -72 -78 -101 -28 -58
-44 -141 -29 -150 6 -4 13 13 17 39 12 93 77 192 148 230 25 13 31 13 53 -2
13 -9 44 -22 67 -29 l43 -12 5 -139 6 -139 2 137 2 136 40 7 c22 4 56 18 76
31 l36 25 33 -21 c70 -43 144 -158 146 -225 0 -16 4 -39 9 -50 15 -37 23 9 11
65 -21 100 -85 189 -170 237 -25 14 -52 33 -58 41 -18 22 -16 67 3 83 24 20
44 65 44 101 0 22 7 37 20 46 17 10 20 23 20 76 0 79 -29 139 -88 180 -34 24
-52 29 -114 32 -40 2 -90 -2 -111 -7z m91 -87 c3 -66 1 -74 -22 -97 -21 -21
-35 -25 -81 -25 l-55 0 0 -81 c0 -85 7 -108 47 -151 23 -24 24 -28 11 -55 -7
-15 -23 -29 -34 -31 -42 -6 -109 73 -128 151 -8 35 21 190 45 237 25 51 80 99
130 115 78 25 84 20 87 -63z m109 52 c39 -19 78 -72 88 -121 9 -43 -9 -43 -52
-1 -43 41 -56 28 -15 -15 30 -31 32 -37 32 -107 0 -106 -35 -158 -117 -175
l-33 -7 0 161 0 161 28 0 c17 0 38 10 52 25 29 31 18 46 -13 17 -13 -12 -33
-22 -45 -22 -20 0 -22 5 -22 56 l0 57 31 -7 c17 -3 46 -13 66 -22z m-107 -300
c0 -129 -4 -135 -64 -110 -53 22 -76 67 -76 149 l0 67 48 0 c26 0 54 4 62 9 8
6 18 7 22 5 4 -3 8 -57 8 -120z m200 96 c0 -11 -4 -20 -10 -20 -5 0 -10 9 -10
20 0 11 5 20 10 20 6 0 10 -9 10 -20z m-81 -293 c6 -6 11 -14 11 -19 0 -13
-58 -38 -90 -38 -30 0 -30 1 -30 53 l0 53 43 10 c41 9 42 8 48 -19 4 -16 12
-34 18 -40z m-126 46 c4 -2 7 -24 7 -49 0 -31 -5 -46 -16 -51 -16 -6 -97 26
-92 36 2 3 12 23 22 43 17 32 23 37 45 31 14 -3 29 -8 34 -10z"/>
</g>
</svg>
